<svg width="48" height="48" viewBox="0 0 48 48" fill="none" xmlns="http://www.w3.org/2000/svg">
<rect width="48" height="48" fill="#323238"/>
<g clip-path="url(#clip0_61487:20)">
<path d="M22.0645 36.3249C20.8191 36.3249 19.3645 36.3181 17.929 36.236C15.8287 36.2833 13.7945 35.5002 12.268 34.0569C10.8244 32.531 10.0413 30.497 10.0889 28.397C10 26.7736 10 25.1323 10 23.5449C10 23.3049 10 23.0649 10 22.8249C10 22.5849 10 22.3449 10 22.1049C10 20.5175 10 18.8761 10.0889 17.2539C10.0416 15.1536 10.8246 13.1194 12.268 11.5929C13.7945 10.1495 15.8287 9.36651 17.929 9.41377C19.369 9.33164 20.8191 9.32489 22.0645 9.32489H24.9366C26.182 9.32489 27.6366 9.33164 29.0732 9.41377C31.1733 9.36619 33.2072 10.1493 34.7331 11.5929C36.1765 13.1194 36.9595 15.1536 36.9122 17.2539C37 18.8761 37 20.5175 37 22.106C37 22.346 37 22.586 37 22.826C37 23.066 37 23.3056 37 23.5449C37 25.1323 37 26.7736 36.9111 28.3981C36.9587 30.4982 36.1756 32.5321 34.732 34.058C33.2061 35.5016 31.1721 36.2847 29.0721 36.2371C27.631 36.3193 26.1809 36.326 24.9355 36.326L22.0645 36.3249Z" fill="white"/>
<path d="M19.9707 28H17.4219V18.4902H19.9707V28ZM17.2725 16.0293C17.2725 15.6484 17.3984 15.335 17.6504 15.0889C17.9082 14.8428 18.2568 14.7197 18.6963 14.7197C19.1299 14.7197 19.4756 14.8428 19.7334 15.0889C19.9912 15.335 20.1201 15.6484 20.1201 16.0293C20.1201 16.416 19.9883 16.7324 19.7246 16.9785C19.4668 17.2246 19.124 17.3477 18.6963 17.3477C18.2686 17.3477 17.9229 17.2246 17.6592 16.9785C17.4014 16.7324 17.2725 16.416 17.2725 16.0293ZM24.4092 18.4902L24.4883 19.5889C25.168 18.7393 26.0791 18.3145 27.2217 18.3145C28.2295 18.3145 28.9795 18.6104 29.4717 19.2021C29.9639 19.7939 30.2158 20.6787 30.2275 21.8564V28H27.6875V21.918C27.6875 21.3789 27.5703 20.9893 27.3359 20.749C27.1016 20.5029 26.7119 20.3799 26.167 20.3799C25.4521 20.3799 24.916 20.6846 24.5586 21.2939V28H22.0186V18.4902H24.4092Z" fill="#323238"/>
</g>
<defs>
<clipPath id="clip0_61487:20">
<rect x="12" y="11" width="23" height="24" rx="5" fill="white"/>
</clipPath>
</defs>
</svg>
